<?xml version="1.0" standalone="no"?>
<!DOCTYPE svg PUBLIC "-//W3C//DTD SVG 20010904//EN"
 "http://www.w3.org/TR/2001/REC-SVG-20010904/DTD/svg10.dtd">
<svg version="1.0" xmlns="http://www.w3.org/2000/svg"
 width="1024.000000pt" height="1024.000000pt" viewBox="0 0 1024.000000 1024.000000"
 preserveAspectRatio="xMidYMid meet">
<metadata>
Created by potrace 1.16, written by Peter Selinger 2001-2019
</metadata>
<g transform="translate(0.000000,512.000000) scale(0.049042,-0.039415)"
fill="#000000" stroke="none">
<path d="M3173 12983 c-26 -10 -12 -22 20 -17 30 5 31 5 13 -10 -11 -9 -26
-16 -34 -16 -8 0 -51 -19 -95 -42 -81 -42 -193 -140 -259 -228 -14 -19 -29
-32 -33 -28 -4 4 4 17 18 30 14 13 28 37 31 53 5 26 5 28 -6 13 -7 -9 -22 -31
-33 -49 -22 -36 -31 -50 -59 -92 -17 -24 -17 -30 -5 -39 11 -8 11 -9 -3 -5
-11 4 -20 -4 -28 -26 -7 -18 -16 -41 -20 -52 -5 -11 -16 -50 -26 -88 -23 -90
-15 -268 15 -344 44 -113 164 -290 269 -397 67 -69 187 -156 215 -156 8 0 20
-6 26 -14 10 -11 2 -23 -36 -62 l-48 -47 47 42 c55 48 75 50 162 20 82 -29 85
-34 50 -68 -17 -17 -36 -48 -42 -69 -7 -22 -19 -42 -26 -45 -8 -3 -61 -44
-118 -90 -57 -46 -123 -97 -148 -114 -54 -36 -242 -132 -320 -163 -103 -41
-185 -70 -198 -70 -21 0 -51 -42 -52 -72 0 -27 22 -39 34 -19 3 4 20 11 38 15
18 4 85 31 149 61 64 30 121 55 126 55 25 0 368 152 531 235 29 15 56 24 59
21 10 -9 -48 -57 -166 -137 -113 -76 -178 -111 -286 -154 -38 -16 -132 -59
-207 -96 -75 -37 -163 -73 -194 -79 -32 -7 -75 -25 -97 -41 -45 -32 -56 -34
-104 -17 -35 13 -41 26 -21 46 10 10 10 15 -2 22 -25 16 -33 7 -64 -84 -27
-76 -36 -91 -67 -110 -20 -11 -47 -29 -61 -39 -14 -10 -50 -26 -81 -37 -72
-25 -143 -74 -162 -110 -25 -48 -36 -46 -32 4 3 44 -8 63 -18 31 -3 -8 -8 -23
-12 -32 -3 -10 -5 -22 -4 -26 1 -4 -5 -18 -14 -30 -8 -12 -15 -40 -15 -63 0
-63 -11 -105 -29 -112 -9 -3 -40 -28 -69 -56 -29 -28 -65 -56 -80 -63 -16 -6
-34 -19 -41 -27 -18 -22 -38 -20 -46 4 -4 12 -8 57 -10 102 -2 44 -6 82 -8 85
-3 2 -8 -26 -12 -64 -4 -37 -14 -108 -24 -158 -15 -82 -19 -91 -45 -104 -15
-7 -36 -21 -45 -30 -26 -26 -121 -55 -135 -41 -14 14 19 75 60 106 32 25 61
91 51 118 -21 55 -195 -44 -244 -139 -9 -16 -31 -48 -49 -71 -47 -57 -86 -148
-93 -219 -5 -46 -11 -62 -26 -70 -104 -53 -129 -81 -105 -110 10 -12 7 -24
-15 -60 -14 -25 -34 -51 -45 -57 -10 -7 -16 -18 -12 -27 5 -14 3 -14 -11 -3
-9 8 -21 11 -27 7 -15 -10 -50 -81 -50 -104 0 -11 -4 -22 -9 -25 -5 -4 -8 -14
-7 -23 2 -10 -5 -26 -15 -37 -10 -10 -16 -23 -13 -27 3 -5 -1 -18 -9 -30 l-15
-21 -7 21 c-3 12 -10 21 -14 21 -33 0 -121 -381 -123 -530 -1 -41 -5 -83 -10
-93 -15 -30 -18 -60 -7 -73 7 -8 7 -14 0 -18 -6 -4 -8 -13 -5 -21 4 -8 -1 -18
-10 -21 -9 -4 -16 -18 -16 -34 0 -39 -9 -41 -49 -13 -19 12 -29 23 -24 23 16
0 32 49 38 114 3 33 10 65 16 72 6 8 6 14 0 18 -5 4 -14 -19 -20 -51 -6 -32
-18 -78 -26 -103 -9 -25 -17 -54 -19 -65 -2 -11 -6 -31 -10 -45 -6 -21 -5 -22
4 -7 19 29 30 19 30 -27 0 -26 -6 -48 -15 -56 -8 -7 -15 -26 -15 -43 0 -17
-10 -51 -21 -75 -19 -38 -20 -49 -10 -82 17 -57 15 -72 -11 -68 -22 3 -23 -2
-31 -72 -4 -44 -3 -95 3 -123 5 -26 10 -58 10 -70 -1 -21 -1 -22 -12 -2 -6 11
-13 31 -14 45 -5 74 -6 191 -1 230 5 39 5 42 -5 20 -7 -14 -12 -81 -12 -155 0
-126 0 -132 32 -197 17 -37 36 -69 42 -73 19 -12 83 -173 76 -192 -3 -8 1 -27
9 -43 8 -16 15 -38 15 -48 0 -11 7 -25 16 -32 8 -8 21 -27 29 -44 8 -17 23
-47 33 -66 11 -19 25 -54 32 -77 7 -23 23 -52 36 -64 19 -18 21 -25 12 -44 -9
-19 -6 -29 12 -52 26 -33 50 -88 50 -115 0 -10 6 -20 13 -22 123 -34 200 -68
275 -122 21 -16 29 -16 107 0 46 9 94 16 107 16 50 0 66 62 26 96 -19 15 -21
16 -7 1 9 -11 14 -29 11 -43 l-5 -25 -28 27 c-27 26 -30 27 -91 17 -60 -10
-65 -9 -106 16 -66 40 -99 69 -105 91 -5 18 -3 19 11 8 9 -7 29 -23 43 -37 22
-21 36 -25 115 -27 49 -2 100 -6 114 -9 19 -4 21 -3 9 4 -9 6 -58 15 -110 21
-88 11 -96 14 -132 48 -47 45 -67 81 -67 120 0 36 13 47 65 57 22 4 45 11 50
15 6 5 55 4 111 -2 99 -11 174 -6 174 12 0 5 -4 12 -10 15 -18 11 -11 25 12
25 12 0 32 -9 44 -21 30 -28 77 -18 155 32 33 22 65 39 72 39 17 1 42 22 49
41 9 22 -16 56 -55 75 -29 13 -30 13 -13 -1 11 -8 23 -15 26 -15 4 0 12 -10
17 -23 11 -23 10 -23 -44 -23 -42 1 -58 -3 -68 -18 -14 -18 -16 -18 -77 12
-69 34 -113 53 -171 73 -22 8 -69 42 -105 77 -37 35 -85 72 -107 84 -82 42
-101 76 -106 188 -3 49 -1 55 16 55 14 0 19 -6 17 -18 -2 -12 36 -57 112 -133
64 -62 119 -114 123 -114 4 0 -34 42 -86 94 -133 132 -141 153 -77 191 157 92
182 128 127 177 -17 15 -42 28 -56 28 -22 0 -25 4 -25 38 0 21 9 55 20 77 11
22 20 47 20 57 0 10 60 80 133 156 167 171 198 206 277 312 35 47 83 106 106
131 27 29 66 97 108 182 37 77 82 155 104 179 21 24 50 64 65 89 14 25 33 51
41 59 9 7 16 21 16 31 0 25 5 24 44 -6 18 -14 37 -25 42 -25 6 0 15 -5 21 -11
18 -18 112 -49 168 -55 55 -7 75 5 78 44 1 19 8 20 122 19 109 -2 126 0 175
22 60 27 110 67 110 88 0 7 12 13 28 13 36 0 119 23 167 46 21 10 51 17 67 16
15 -1 44 4 63 12 19 8 59 17 89 20 48 4 53 3 49 -13 -7 -29 42 -61 93 -61 38
0 44 -3 44 -21 0 -11 5 -29 11 -41 11 -21 91 -60 145 -72 22 -5 35 -17 47 -42
9 -19 28 -40 42 -46 14 -6 25 -15 25 -19 0 -14 112 -62 148 -64 l37 -1 -1 -94
c0 -90 0 -93 12 -55 7 22 13 53 13 70 1 17 5 25 10 20 5 -6 16 -81 25 -169 9
-87 19 -163 21 -170 3 -6 -2 0 -12 13 -10 13 -26 44 -36 70 -18 45 -18 45 -13
10 2 -20 15 -61 29 -90 16 -36 23 -68 21 -94 -2 -22 -1 -31 2 -20 12 46 14 49
27 36 11 -11 15 -121 19 -466 0 -27 -4 -74 -10 -103 -10 -47 -9 -57 8 -85 27
-43 25 -57 -10 -97 -35 -41 -37 -56 -10 -72 11 -7 20 -22 20 -34 0 -12 13 -38
29 -58 32 -39 31 -60 -1 -77 -11 -6 -17 -13 -14 -16 3 -4 1 -12 -5 -19 -16
-19 -1 -54 23 -54 21 0 115 24 159 41 36 14 79 19 106 12 22 -5 21 -6 -11 -28
-19 -13 -43 -26 -55 -30 -12 -3 -22 -13 -22 -21 -1 -8 -2 -20 -3 -26 -1 -9
-21 -12 -71 -11 -87 3 -142 20 -148 44 -3 11 -14 19 -25 19 -52 0 -151 83
-209 176 -11 17 -12 16 -12 -11 -1 -46 34 -112 95 -182 47 -53 72 -71 157
-113 l102 -51 -77 6 c-88 7 -134 20 -164 46 -11 11 -24 19 -30 19 -5 0 -26 5
-48 11 -39 11 -74 41 -108 94 l-19 30 5 -54 c8 -76 59 -152 124 -185 79 -40
357 -136 395 -136 9 0 17 -7 17 -15 0 -17 0 -17 -125 -15 -49 1 -106 1 -125 1
-59 -2 -168 26 -223 56 -39 22 -63 46 -97 96 -24 36 -46 64 -48 62 -2 -2 1
-28 8 -57 15 -63 63 -141 112 -184 20 -18 41 -41 47 -53 10 -18 9 -21 -8 -21
-11 0 -22 4 -25 9 -3 4 -19 11 -35 14 -18 4 -42 22 -62 47 -36 45 -66 55 -54
18 16 -51 16 -77 2 -99 -9 -14 -17 -63 -21 -118 -9 -128 -37 -174 -119 -201
-38 -12 -52 -32 -63 -90 -4 -19 5 -36 41 -72 50 -53 51 -55 32 -83 -8 -11 -19
-38 -24 -60 -6 -22 -14 -48 -18 -57 -8 -21 22 -35 150 -68 88 -22 93 -22 170
-7 198 40 250 31 160 -29 -63 -42 -169 -64 -305 -65 -151 -1 -171 1 -194 17
-26 18 -70 18 -86 0 -8 -11 -9 -31 -2 -75 6 -40 5 -64 -2 -71 -14 -14 -69 -13
-84 2 -15 15 -27 3 -36 -34 -6 -26 -4 -28 22 -28 22 0 31 -7 44 -35 l16 -36
-33 -33 c-19 -17 -39 -45 -45 -61 -8 -22 -18 -107 -20 -179 0 -15 -33 18 -62
63 -15 25 -28 40 -28 35 0 -6 14 -32 31 -58 29 -47 30 -51 23 -126 -5 -66 0
-171 21 -380 3 -36 21 -166 31 -230 16 -104 45 -194 89 -277 34 -65 35 -68 34
-182 0 -64 -4 -159 -8 -211 -4 -52 -4 -105 1 -118 4 -13 11 -53 14 -90 5 -54
2 -79 -16 -130 -12 -35 -20 -66 -17 -68 3 -3 14 25 26 62 22 72 27 158 11 212
-13 48 8 126 35 129 26 2 36 -15 30 -52 l-6 -30 21 24 c11 13 20 29 20 35 0 7
11 23 25 36 24 22 26 23 42 7 13 -13 17 -34 16 -89 0 -64 -4 -79 -30 -118 -42
-63 -69 -117 -84 -170 -16 -56 -15 -55 -33 -41 -20 17 -26 -6 -28 -102 0 -43
-5 -80 -9 -83 -5 -2 -5 -12 -2 -20 3 -8 1 -25 -5 -37 -18 -37 -32 -124 -33
-205 0 -96 -15 -70 -23 42 -3 43 -8 81 -11 84 -8 8 -5 -106 5 -163 12 -77 40
-207 50 -240 5 -16 18 -57 29 -90 11 -33 38 -121 61 -195 23 -74 46 -139 51
-144 5 -6 9 -18 9 -27 0 -10 44 -105 99 -212 54 -107 103 -216 110 -243 7 -26
20 -59 30 -73 9 -14 26 -48 36 -76 10 -27 24 -57 31 -66 17 -19 1 -39 -32 -39
-12 0 -32 -8 -45 -19 -20 -16 -21 -22 -12 -47 41 -106 40 -206 -2 -256 -25
-30 -33 -72 -15 -83 5 -3 7 0 4 9 -6 15 21 76 35 76 11 0 31 70 31 107 0 16
14 55 30 86 22 39 29 63 25 80 -5 17 -2 28 8 34 9 4 31 38 51 75 20 37 66 109
102 160 37 50 86 122 110 159 48 74 70 99 86 99 20 0 -2 -63 -50 -145 -26 -44
-58 -102 -72 -128 -15 -28 -31 -47 -42 -47 -23 0 -85 -107 -138 -238 -23 -57
-43 -108 -44 -115 -1 -7 -12 -34 -24 -61 -12 -27 -22 -51 -22 -54 0 -3 -7 -14
-16 -24 -11 -11 -18 -40 -20 -75 -2 -32 -6 -71 -9 -86 -2 -15 1 -36 7 -47 10
-16 9 -23 -9 -40 -38 -35 -64 -10 -44 42 25 67 32 101 23 110 -10 10 -42 -107
-42 -158 0 -18 -8 -38 -20 -49 -24 -22 -35 -91 -20 -129 12 -33 7 -44 -14 -27
-11 10 -17 0 -34 -56 -18 -58 -19 -69 -7 -76 8 -4 15 -16 15 -26 0 -14 -6 -17
-24 -14 -21 4 -27 -2 -49 -49 -14 -32 -21 -59 -16 -68 5 -10 -4 -25 -32 -48
-21 -18 -39 -38 -39 -43 0 -21 -92 -89 -140 -104 -14 -4 -32 -12 -40 -19 -37
-28 -63 -35 -151 -40 -52 -3 -123 -8 -159 -11 -36 -3 -168 -7 -293 -11 -126
-3 -240 -9 -253 -15 -14 -5 -69 -9 -122 -9 -53 0 -140 -5 -192 -11 -89 -9
-383 -36 -495 -45 -121 -9 -284 -26 -335 -34 -30 -5 -82 -12 -115 -15 -100 -9
-132 -15 -365 -61 -358 -70 -445 -96 -445 -129 0 -20 18 -20 1328 -23 1259 -2
1327 -1 1327 15 1 17 1 17 11 0 8 -14 24 -17 84 -17 43 0 75 4 75 10 0 11 -21
13 -82 10 -32 -1 -38 2 -38 19 0 20 6 21 85 21 71 0 85 3 85 16 0 13 2 14 15
1 16 -16 38 -15 220 8 61 8 157 17 215 20 95 5 292 30 330 41 8 2 45 37 82 78
73 80 69 70 134 326 28 107 84 212 142 263 20 18 57 52 82 77 60 59 84 72 115
60 14 -5 25 -13 25 -18 0 -4 7 -17 15 -28 15 -19 15 -19 13 1 -2 11 1 54 5 95
7 61 14 81 36 105 15 17 33 48 40 70 8 22 28 56 45 76 71 81 89 111 157 249
39 80 79 161 89 180 10 19 21 51 25 70 4 19 17 58 30 85 12 28 28 66 36 85 7
19 20 46 30 60 17 26 59 139 59 161 0 6 16 43 35 81 20 38 49 104 64 147 16
43 48 104 73 137 81 108 125 287 116 467 -3 62 -2 67 17 67 12 0 30 7 40 15
11 8 43 30 70 47 28 18 52 35 55 38 3 4 37 24 75 45 250 138 434 312 614 580
93 139 134 239 136 335 1 45 1 53 -2 20 -2 -30 -8 -59 -14 -64 -5 -6 -9 -22
-9 -37 0 -15 -4 -31 -10 -34 -6 -3 -10 -13 -10 -21 0 -15 -79 -146 -80 -131 0
4 13 42 30 85 34 91 55 199 46 246 -5 26 -14 37 -35 44 -22 8 -30 20 -40 58
-23 85 -32 114 -39 114 -9 -1 -42 -72 -42 -91 0 -16 -80 -137 -137 -207 -39
-48 -101 -98 -110 -89 -3 4 12 30 34 59 21 29 49 70 62 90 12 21 33 46 45 56
35 27 83 129 68 144 -15 15 -15 45 0 54 6 4 17 -1 25 -11 16 -23 17 -6 2 46
-11 35 -14 37 -40 32 -39 -8 -39 19 1 58 29 30 50 31 50 5 0 -8 13 -16 30 -19
40 -9 109 -73 132 -124 21 -47 34 -59 18 -17 -18 45 -32 68 -72 116 -21 27
-37 52 -33 58 3 5 21 12 40 16 68 12 266 170 317 252 23 38 100 97 185 143
173 93 288 239 358 454 22 69 27 97 36 200 4 55 12 121 17 146 4 25 5 54 1 65
-4 13 -9 -1 -13 -41 -3 -33 -9 -84 -12 -112 -9 -82 -24 -63 -24 30 0 82 -25
207 -55 272 -8 17 -28 65 -44 107 -107 272 -237 456 -421 597 -192 147 -347
181 -605 131 -138 -27 -185 -41 -313 -98 -56 -24 -106 -42 -110 -38 -14 15
114 114 212 163 197 99 312 150 386 172 41 12 89 26 105 32 17 5 101 14 189
20 130 9 160 9 167 -2 4 -8 3 -19 -3 -26 -8 -10 0 -13 39 -13 34 0 71 -9 114
-29 47 -21 69 -26 82 -19 10 5 26 6 37 3 11 -3 28 -2 37 4 10 6 16 11 13 11
-3 0 -30 9 -59 20 -30 11 -88 22 -130 25 -97 8 -121 13 -121 26 0 7 26 9 78 5
126 -10 174 -18 242 -43 8 -3 29 -7 45 -9 20 -3 43 -18 69 -46 21 -24 53 -59
71 -79 28 -31 34 -46 40 -105 11 -116 26 -132 20 -21 -5 108 -3 111 54 76 61
-37 76 -4 45 101 -11 39 -14 72 -9 116 5 48 2 78 -13 131 -38 128 -43 194 -33
449 5 139 13 249 19 261 23 42 83 40 135 -3 16 -13 34 -24 41 -24 7 0 21 -9
30 -19 10 -10 32 -22 51 -25 18 -4 35 -12 37 -18 3 -7 29 -12 65 -12 59 -1 62
-2 102 -46 22 -25 42 -49 42 -55 1 -5 3 -20 4 -33 3 -32 13 -39 60 -45 22 -3
63 -12 90 -22 28 -9 64 -21 81 -26 39 -12 189 -11 234 1 83 21 198 67 230 91
19 15 51 34 70 44 34 17 48 29 122 100 23 22 62 41 119 60 51 17 105 43 139
68 74 55 231 185 305 252 85 77 136 112 250 173 73 39 118 71 165 120 74 76
89 96 115 167 20 56 98 209 137 270 67 105 109 212 113 285 1 20 24 74 54 128
28 51 51 98 51 103 0 9 29 62 80 149 148 252 255 499 271 625 21 169 27 260
27 416 0 158 2 170 31 257 17 50 31 99 31 108 0 10 19 79 42 153 42 133 43
139 42 271 -1 151 -11 187 -71 280 -37 57 -90 103 -158 137 -79 40 -400 134
-447 132 -20 -1 -21 -2 -3 -5 75 -16 133 -32 180 -50 11 -4 24 -6 28 -5 5 1
23 -5 40 -13 18 -7 52 -19 77 -27 117 -34 230 -106 260 -165 8 -16 20 -36 26
-44 18 -22 26 -63 15 -79 -8 -12 -12 -12 -26 3 -13 13 -20 14 -31 5 -15 -12
-19 -74 -6 -83 4 -2 7 -28 5 -57 -1 -30 3 -59 9 -66 7 -9 7 -13 -1 -13 -6 0
-11 -6 -11 -14 0 -8 -3 -16 -7 -19 -5 -2 -3 -3 3 -1 7 1 11 -14 10 -42 0 -24
-4 -44 -8 -44 -4 0 2 -18 14 -41 15 -30 23 -37 30 -27 5 8 6 2 2 -17 -4 -16
-11 -35 -15 -41 -5 -6 -6 -14 -3 -17 10 -9 -5 -57 -17 -57 -7 0 -8 7 -4 18 11
28 11 36 -2 37 -15 0 -30 15 -15 15 6 0 16 9 23 21 10 19 8 20 -10 14 -19 -6
-20 -4 -11 20 8 20 7 27 -5 31 -8 4 -12 10 -9 15 3 6 1 16 -6 24 -8 10 -8 19
-1 34 7 13 8 22 1 26 -5 3 -10 16 -10 27 0 34 -12 12 -16 -27 -4 -51 -26 -135
-36 -135 -4 0 -8 -7 -8 -16 0 -20 -58 -104 -72 -104 -6 0 -8 -8 -6 -18 3 -12
-2 -24 -14 -31 -25 -16 -33 -9 -19 17 9 17 8 19 -9 15 -15 -4 -20 0 -20 16 0
11 -4 21 -10 21 -5 0 -10 -9 -10 -20 0 -11 -5 -20 -11 -20 -6 0 -9 9 -6 20 3
13 0 20 -10 20 -10 0 -12 6 -8 20 5 15 2 20 -10 20 -11 0 -15 5 -11 15 6 17
-29 36 -52 28 -10 -4 -10 1 -2 22 12 31 4 48 -11 25 -7 -11 -8 -7 -3 14 6 24
4 27 -12 22 -27 -8 -40 4 -48 44 l-6 35 19 -28 c14 -21 21 -25 27 -16 4 7 3
14 -4 17 -7 2 -12 10 -12 17 0 14 -28 29 -47 26 -7 -1 -13 5 -13 14 0 18 -17
20 -23 3 -3 -10 -8 -10 -18 -2 -8 6 -29 10 -46 8 -26 -1 -33 2 -33 17 0 11 5
19 12 19 6 0 8 3 5 6 -10 11 -38 -18 -33 -33 3 -8 -2 -13 -13 -13 -11 0 -21 6
-24 13 -3 9 -7 9 -17 0 -18 -16 -50 1 -50 27 0 11 -4 20 -10 20 -5 0 -10 6
-10 14 0 8 -6 16 -12 18 -10 4 -10 10 -1 30 12 26 11 26 -23 23 -23 -1 -38 3
-41 11 -7 19 -23 18 -23 -1 0 -8 -9 -19 -20 -25 -16 -9 -20 -8 -20 5 0 18 -16
20 -24 3 -3 -7 -3 -2 0 11 5 19 3 23 -10 18 -12 -5 -14 -1 -9 23 3 20 1 30 -6
30 -7 0 -9 5 -6 10 5 8 11 8 19 1 10 -8 16 -4 25 15 12 27 6 48 -7 27 -10 -17
-35 5 -53 45 -12 29 -18 33 -49 30 -31 -2 -35 0 -33 19 2 16 -2 21 -12 17 -8
-4 -15 -12 -15 -20 0 -8 -4 -14 -10 -14 -5 0 -10 5 -10 10 0 6 -7 10 -15 10
-8 0 -15 5 -15 10 0 6 -7 10 -15 10 -8 0 -15 -6 -15 -14 0 -8 -5 -16 -12 -18
-8 -3 -19 20 -30 63 -9 37 -25 87 -36 110 -10 24 -22 52 -25 62 -4 9 -14 17
-22 17 -11 0 -15 -6 -11 -17 7 -24 25 -106 26 -115 0 -5 -4 -8 -10 -8 -5 0
-10 9 -10 21 0 19 -20 72 -62 167 -21 48 -88 142 -100 142 -14 0 -9 -16 23
-76 42 -80 92 -311 101 -466 l3 -63 -36 3 c-23 2 -40 -2 -48 -12 -18 -21 -47
-20 -56 2 -4 9 -9 35 -11 57 -7 103 -86 366 -120 406 -8 8 -14 20 -14 26 0 6
-9 13 -20 16 -14 4 -26 -3 -40 -23 l-20 -28 22 6 c22 5 22 5 6 -20 -11 -16
-13 -30 -7 -39 7 -12 9 -11 9 2 0 9 7 20 16 23 22 8 33 -3 14 -14 -12 -7 -12
-13 -1 -33 7 -14 10 -30 7 -36 -4 -6 -3 -11 2 -11 5 0 12 -10 15 -22 2 -13 12
-43 21 -68 8 -25 25 -79 36 -120 12 -41 25 -83 31 -92 5 -10 9 -32 9 -50 0
-57 12 -106 29 -125 9 -10 25 -55 35 -100 16 -68 17 -85 6 -98 -15 -19 -40 -3
-40 26 0 10 -4 21 -10 24 -5 3 -10 15 -10 26 0 10 -4 19 -9 19 -22 0 -22 -33
-8 -378 2 -46 -8 -65 -17 -35 -3 10 -8 42 -11 71 -4 34 -13 60 -26 73 -11 11
-24 31 -30 45 -8 24 -13 26 -46 19 -48 -9 -73 -22 -73 -39 0 -22 -27 -38 -51
-31 -17 6 -20 13 -16 34 4 20 -1 33 -23 54 -24 24 -35 28 -72 25 -23 -2 -53
-10 -65 -16 -26 -15 -73 -16 -73 -2 0 6 -4 10 -10 10 -5 0 -10 -7 -10 -15 0
-8 -5 -15 -11 -15 -6 0 -8 9 -4 20 6 20 3 20 -97 19 -57 -1 -121 1 -143 4 -46
6 -98 -12 -113 -40 -23 -39 -52 5 -106 158 -9 25 -23 54 -32 65 -14 18 -15 17
-9 -17 8 -53 69 -265 94 -327 12 -29 21 -67 21 -84 l0 -31 -19 24 c-10 13 -27
49 -39 79 -34 90 -46 110 -67 111 -34 2 -45 -1 -63 -20 -25 -26 -24 -40 1 -35
12 2 16 2 9 -2 -6 -3 -10 -10 -7 -14 3 -5 0 -12 -6 -16 -8 -5 -9 -3 -4 6 5 8
3 11 -6 8 -8 -3 -16 -18 -19 -34 -4 -20 -12 -30 -27 -32 -36 -5 -47 -27 -33
-62 7 -16 16 -30 21 -30 5 0 9 -6 9 -14 0 -7 10 -17 23 -21 16 -5 18 -8 7 -12
-25 -10 -40 -31 -34 -47 5 -14 8 -14 21 0 22 22 29 9 12 -23 -16 -32 -59 -72
-76 -73 -16 0 -17 -16 -3 -25 6 -4 8 -10 5 -15 -3 -4 1 -13 9 -19 12 -10 13
-20 6 -51 0 -3 -7 -13 -14 -23 -13 -17 -17 -17 -51 -3 -21 9 -47 16 -59 16
-16 0 -27 10 -37 32 -11 25 -22 34 -49 40 -19 3 -39 2 -45 -3 -5 -5 -19 -9
-32 -9 -13 0 -23 -6 -23 -14 0 -19 25 -27 39 -13 14 14 15 -26 1 -53 -11 -20
-92 -51 -139 -52 -20 -1 -36 -10 -49 -28 -13 -17 -38 -32 -69 -40 -26 -7 -59
-21 -73 -30 -14 -10 -35 -20 -47 -24 -12 -4 -35 -22 -52 -41 -17 -19 -34 -35
-39 -35 -5 0 -28 -20 -50 -44 -34 -37 -149 -106 -178 -106 -5 0 -28 -16 -52
-34 -24 -19 -57 -38 -75 -41 -18 -4 -46 -15 -63 -25 -16 -9 -60 -27 -97 -39
-37 -13 -67 -27 -67 -32 0 -5 -9 -9 -20 -9 -10 0 -28 -10 -39 -21 -11 -12 -27
-19 -35 -16 -8 3 -17 -1 -20 -9 -3 -8 -11 -14 -18 -14 -8 0 -40 -13 -73 -30
-33 -16 -70 -30 -81 -30 -12 0 -27 -7 -34 -15 -7 -8 -21 -15 -31 -15 -11 0
-18 -6 -16 -12 1 -8 -10 -14 -28 -16 -16 -1 -39 -3 -50 -4 -11 -1 -33 2 -50 6
-16 4 -27 4 -23 0 11 -11 -23 -32 -59 -35 -40 -5 -93 34 -93 67 0 17 -6 24
-20 24 -11 0 -20 -7 -20 -15 0 -8 -4 -15 -10 -15 -5 0 -10 9 -10 20 0 20 -6
20 -129 19 -71 0 -137 3 -147 9 -42 21 -84 22 -117 2 -30 -19 -30 -20 -8 -20
18 0 22 -4 19 -18 -7 -25 17 -56 37 -49 8 4 15 2 15 -3 0 -5 -12 -10 -27 -12
-16 -2 -27 -8 -26 -15 2 -7 -5 -13 -15 -13 -10 0 -24 -6 -31 -12 -10 -10 -15
-10 -18 -1 -2 7 -10 10 -16 7 -18 -6 -47 48 -43 80 3 32 65 96 93 96 15 0 15
3 -6 19 -15 11 -20 21 -13 25 11 6 51 -11 63 -26 17 -24 326 -31 445 -11 178
31 358 114 476 221 35 31 91 79 126 106 79 62 139 155 158 244 7 36 11 69 7
75 -7 11 -33 -46 -33 -73 0 -15 -14 -52 -39 -100 -20 -40 -184 -86 -281 -78
-43 3 -45 4 -48 37 -3 33 13 79 32 93 5 3 19 2 32 -2 16 -6 27 -3 44 12 27 25
22 31 -18 17 -25 -9 -42 -7 -94 12 -76 27 -90 38 -113 90 -17 37 -17 42 -2 75
9 19 25 37 34 40 52 16 61 35 21 45 l-23 5 23 6 c24 7 31 38 9 38 -8 0 -25 9
-38 21 l-24 20 -16 -20 c-16 -19 -17 -19 -42 19 -21 33 -23 41 -11 50 10 9 20
7 43 -9 16 -12 38 -21 48 -21 10 0 24 -5 31 -12 15 -15 198 -17 272 -2 31 7
86 26 121 42 111 52 243 85 308 78 113 -14 116 -14 119 15 2 14 -4 31 -12 39
-29 23 -19 40 25 40 57 0 239 64 324 113 38 22 93 62 120 87 28 26 66 57 85
70 19 13 56 43 82 68 l47 45 10 -25 c5 -15 17 -31 27 -36 11 -6 17 -23 18 -51
0 -22 5 -40 10 -38 19 6 24 57 16 159 -6 78 -5 111 5 135 7 17 15 46 17 65 5
50 -20 42 -56 -19 -32 -54 -69 -95 -154 -175 -59 -56 -219 -142 -282 -152 -24
-4 -50 -12 -58 -18 -17 -15 -109 -14 -263 1 -141 13 -375 85 -399 121 -3 5
-30 20 -60 34 -30 14 -95 55 -145 91 -49 37 -109 75 -133 86 -53 25 -148 121
-174 176 -10 22 -28 49 -39 59 -10 9 -19 21 -19 26 0 10 -27 38 -66 65 -17 12
-43 42 -59 67 -16 25 -37 48 -47 52 -13 4 -18 16 -18 44 0 38 -1 39 -74 74
-41 20 -83 36 -94 36 -27 0 -48 28 -57 75 -8 48 -20 57 -52 42 -19 -9 -31 -7
-56 6 -63 34 -95 38 -130 17 -17 -11 -56 -27 -87 -36 -30 -10 -63 -24 -72 -32
-16 -13 -24 -10 -81 41 -56 49 -68 55 -115 58 -34 3 -52 0 -52 -7 0 -35 -53
-40 -85 -8 -20 20 -8 42 32 59 41 17 42 45 1 59 -22 8 -37 3 -100 -35 -40 -24
-81 -47 -90 -51 -10 -4 -18 -16 -18 -26 0 -38 -62 -74 -129 -74 -51 -1 -71
-11 -71 -39 0 -10 -8 -26 -19 -36 -10 -10 -21 -28 -25 -39 -4 -13 -17 -24 -32
-27 -34 -6 -39 8 -9 27 39 25 31 38 -20 33 -63 -7 -95 -32 -95 -76 0 -14 -16
-39 -42 -64 -36 -35 -43 -38 -61 -28 -26 17 -37 4 -44 -50 -8 -63 -19 -78 -71
-100 -26 -11 -56 -28 -67 -38 -36 -32 -167 -71 -306 -91 -73 -11 -108 -10
-228 3 -88 10 -157 23 -184 36 -23 10 -78 53 -122 95 -44 42 -83 76 -87 76 -5
0 -8 5 -8 10 0 6 6 10 14 10 11 0 12 10 1 58 -13 63 -33 102 -52 102 -7 0 -13
5 -13 10 0 6 4 10 8 10 5 0 5 21 1 48 -4 26 -6 96 -5 155 2 106 3 108 33 135
17 16 45 58 62 95 18 37 36 67 42 67 12 0 12 -17 -1 -25 -5 -3 -10 -25 -10
-49 0 -23 -3 -45 -6 -49 -4 -3 -6 -59 -5 -124 2 -113 17 -199 42 -233 9 -12
10 -11 4 5 -52 147 -46 342 15 472 42 91 77 136 184 243 99 98 122 141 74 139
-13 0 -29 -3 -35 -6z m1730 -842 c15 -6 69 -16 120 -21 134 -15 230 -64 343
-176 73 -72 83 -87 74 -103 -16 -30 -12 -48 16 -78 14 -15 33 -45 42 -65 9
-21 20 -38 24 -38 5 0 8 -9 8 -20 0 -11 -3 -19 -7 -19 -21 3 -21 -4 -2 -37 11
-20 17 -44 14 -55 -4 -11 -2 -19 4 -19 6 0 11 11 11 24 0 40 18 39 29 -1 12
-48 16 -222 6 -288 -4 -27 -18 -64 -31 -82 -13 -17 -24 -36 -24 -41 0 -22 -74
-103 -107 -117 -34 -14 -40 -14 -80 5 -59 28 -55 51 12 66 51 11 94 31 107 49
14 18 8 26 -13 20 -12 -4 -27 -1 -37 9 -14 12 -26 13 -57 6 -22 -5 -66 -8 -98
-8 -81 1 -58 21 31 26 50 3 73 9 90 25 16 15 34 20 61 19 78 -5 52 36 -36 59
-68 16 -57 33 16 25 112 -14 141 -5 141 40 0 34 -24 42 -122 40 -73 -1 -90 -4
-110 -22 -53 -49 -93 -56 -102 -18 -4 16 -17 29 -36 35 -25 9 -28 14 -23 43 5
31 3 34 -27 40 -22 4 -30 10 -27 20 3 7 -1 23 -8 34 -8 11 -16 53 -19 93 -2
41 -5 79 -5 86 -1 6 -8 18 -16 26 -8 8 -17 31 -19 51 -7 56 -30 122 -47 136
-4 3 -9 15 -13 28 -9 27 11 29 74 7 46 -16 106 -20 114 -7 8 13 -93 125 -131
145 -19 10 -46 17 -61 15 -25 -3 -27 -7 -30 -56 -3 -46 -6 -54 -28 -62 -29
-11 -64 2 -64 25 0 8 -13 24 -30 37 -16 12 -30 30 -30 40 0 23 -36 41 -66 34
-29 -8 -141 -79 -167 -106 -14 -16 -22 -18 -37 -10 -16 9 -22 6 -34 -18 -8
-15 -26 -33 -40 -40 -13 -6 -30 -21 -36 -33 -11 -20 -10 -21 32 -16 23 3 70
11 103 17 151 28 195 33 261 33 54 0 77 -4 97 -19 32 -23 33 -35 7 -52 -15 -9
-20 -22 -19 -50 0 -20 -2 -58 -5 -83 -5 -37 -3 -50 15 -73 22 -28 19 -62 -5
-53 -22 9 -27 -5 -9 -25 9 -10 12 -18 8 -18 -5 0 5 -15 22 -32 23 -25 33 -46
38 -85 5 -36 3 -53 -4 -53 -6 0 -11 -7 -11 -15 0 -8 -6 -15 -14 -15 -9 0 -18
21 -25 62 -11 61 -21 78 -52 78 -9 0 -24 9 -33 19 -17 18 -17 20 1 38 45 47
47 53 19 53 -19 0 -27 -6 -32 -25 -3 -14 -12 -25 -20 -25 -8 0 -14 -7 -14 -15
0 -12 -4 -13 -19 -4 -10 7 -22 31 -27 58 -7 34 -14 47 -29 49 -43 8 -61 62
-20 62 14 0 25 4 25 9 0 12 -25 38 -42 43 -12 4 -8 20 14 49 33 47 -31 63
-131 33 l-54 -16 28 -14 c15 -8 41 -18 59 -23 l31 -9 -40 -2 c-22 -1 -45 -2
-52 -1 -7 1 -17 -8 -23 -19 -7 -13 -21 -20 -40 -20 -35 0 -65 -38 -57 -72 10
-40 -23 -91 -76 -117 -52 -25 -67 -56 -49 -96 8 -17 21 -25 44 -27 l33 -3 -37
-18 c-20 -10 -39 -21 -42 -25 -3 -5 -7 -44 -11 -88 -3 -43 -12 -115 -20 -159
-28 -157 -34 -238 -21 -263 l13 -24 24 30 c13 16 35 35 47 42 22 11 24 17 20
78 l-3 66 50 -3 c27 -1 53 -5 57 -7 4 -3 -8 -19 -27 -35 -34 -31 -38 -38 -50
-96 -5 -26 -3 -33 9 -33 9 0 23 8 32 18 27 29 84 125 84 141 0 21 30 51 52 51
10 0 18 -6 18 -12 0 -7 14 8 31 34 33 50 54 61 149 78 32 5 53 4 72 -6 18 -9
53 -13 99 -12 l71 3 44 -50 c24 -27 49 -64 55 -82 11 -34 25 -39 64 -24 15 6
39 -2 90 -30 62 -33 233 -96 238 -87 1 1 16 21 33 43 41 53 83 132 90 171 4
21 11 31 22 30 18 -1 19 6 8 72 -15 86 30 38 69 -73 14 -42 40 -274 40 -365 0
-91 -1 -97 -30 -132 -16 -21 -32 -38 -35 -38 -3 0 -11 14 -18 32 -16 43 -34
25 -37 -37 -1 -34 -6 -49 -23 -61 -12 -8 -28 -27 -36 -42 -23 -44 -113 -132
-135 -132 -22 0 -29 24 -11 35 12 7 14 45 3 45 -25 -1 -34 -20 -32 -71 3 -55
-26 -174 -44 -186 -13 -8 -27 17 -27 50 0 24 -3 27 -21 22 -30 -10 -76 13 -88
43 -5 15 -13 54 -17 87 -8 73 -48 144 -81 145 -25 0 -38 -19 -48 -73 -7 -34
-43 -77 -66 -77 -14 0 -48 42 -67 82 -9 21 -21 38 -26 38 -5 0 -17 6 -25 14
-14 13 -19 12 -36 -1 -16 -13 -17 -15 -2 -10 9 4 17 2 17 -3 0 -6 -4 -10 -10
-10 -5 0 -16 -12 -24 -27 -15 -28 -15 -27 -16 29 0 60 -17 157 -29 171 -4 4
-20 -32 -35 -80 -16 -49 -32 -92 -36 -96 -9 -10 -21 26 -46 136 -21 92 -31 96
-92 34 -43 -44 -52 -70 -29 -84 8 -4 34 -39 59 -78 25 -38 62 -85 82 -103 40
-36 43 -44 22 -61 -22 -18 -87 10 -116 52 -14 19 -42 50 -62 68 -29 25 -38 40
-38 65 0 48 -18 51 -37 7 l-16 -38 -18 40 c-10 22 -19 49 -19 60 0 32 -18 4
-34 -55 -8 -30 -22 -75 -31 -100 -11 -29 -15 -64 -13 -97 3 -29 1 -53 -3 -53
-12 0 -20 68 -24 194 -3 115 -15 197 -34 241 -5 11 -15 40 -22 65 -7 25 -17
51 -22 57 -9 13 -11 174 -3 243 3 19 12 71 20 115 9 44 20 100 25 125 13 67
14 187 1 195 -7 4 -3 16 10 35 11 15 20 37 20 48 0 12 5 24 10 27 6 3 10 14
10 24 0 21 69 191 99 244 44 78 56 89 130 126 42 21 92 46 111 58 84 48 200
63 273 34z m-343 -587 c56 -84 79 -149 61 -167 -10 -9 -16 -8 -27 8 -66 90
-93 130 -119 179 -26 48 -28 58 -15 66 23 14 50 -9 100 -86z m4950 -574 c0
-15 -61 -110 -70 -110 -5 0 -21 -26 -36 -57 -15 -32 -35 -67 -45 -78 -10 -11
-18 -24 -19 -30 -1 -5 -12 -9 -24 -8 -17 1 -27 -6 -36 -25 -16 -36 -50 -230
-55 -315 -2 -38 -10 -79 -18 -91 -16 -24 -39 -121 -42 -176 -7 -126 -29 -380
-46 -519 -23 -188 -24 -184 56 -205 65 -16 71 -36 12 -36 -63 0 -77 -7 -77
-41 0 -15 -5 -40 -12 -54 -10 -22 -8 -28 10 -48 27 -29 28 -41 1 -53 -16 -8
-21 -20 -23 -61 -2 -28 0 -56 4 -62 3 -6 4 -30 1 -54 -6 -39 -8 -42 -41 -47
-25 -4 -36 -11 -38 -25 -2 -17 6 -23 43 -33 46 -12 66 -35 47 -54 -7 -7 -28
-6 -67 2 -40 8 -60 9 -68 1 -17 -17 10 -38 60 -46 59 -9 73 -14 73 -30 0 -17
-14 -22 -86 -30 -71 -9 -89 -18 -49 -25 22 -4 31 -12 38 -37 8 -25 17 -33 53
-43 44 -13 58 -28 45 -49 -15 -23 -67 -29 -132 -16 -51 11 -65 11 -73 1 -28
-33 -98 -63 -80 -34 4 6 -31 -9 -77 -34 -177 -97 -176 -96 -247 -100 l-67 -3
2 28 c2 31 3 31 -61 12 -27 -8 -54 -15 -59 -15 -21 0 19 32 97 75 64 36 89 57
114 95 18 27 32 58 32 69 0 11 7 21 16 23 24 5 43 73 37 132 -6 63 -30 119
-46 109 -22 -13 -49 -38 -94 -85 -25 -26 -50 -45 -54 -42 -5 3 -15 2 -21 -3
-7 -4 -62 -8 -123 -8 -106 0 -110 -1 -122 -25 -8 -17 -9 -28 -1 -37 6 -7 7
-13 3 -13 -12 0 -85 83 -85 97 0 6 -16 20 -35 32 -19 11 -35 26 -35 33 0 27
-45 58 -111 75 -38 9 -69 21 -69 25 0 4 -9 8 -20 8 -11 0 -30 11 -42 25 -12
14 -26 25 -32 25 -30 0 -126 150 -126 198 0 11 -5 24 -11 27 -7 5 -5 15 6 31
8 13 14 24 11 24 -21 0 -176 -83 -193 -104 -13 -14 -30 -26 -38 -26 -8 0 -15
-4 -15 -9 0 -16 -193 -171 -212 -171 -10 0 -18 -5 -18 -10 0 -6 -5 -16 -10
-23 -14 -16 -56 -75 -77 -109 -41 -64 -87 -32 -98 68 -3 35 -10 64 -14 64 -15
0 -31 -25 -31 -49 0 -15 -5 -33 -10 -41 -7 -11 -10 -6 -10 22 0 20 5 40 10 43
6 3 10 15 10 26 0 26 37 147 55 179 8 14 23 45 35 70 60 128 128 230 190 283
22 19 91 57 154 86 105 47 151 61 266 81 44 8 43 8 -17 7 -35 0 -66 2 -69 6
-3 3 9 53 28 111 l33 105 49 11 c66 14 122 40 196 90 84 57 194 106 257 113
29 3 65 13 82 21 35 19 116 41 221 61 59 12 81 12 107 3 40 -15 135 2 164 28
11 9 43 21 71 25 29 5 78 19 108 33 30 14 67 27 81 30 41 9 131 104 171 181
32 60 101 135 113 123 15 -15 4 -188 -15 -233 -17 -42 -40 -130 -45 -169 -4
-28 1 -18 14 29 11 39 26 89 35 111 14 40 24 92 47 249 19 128 29 155 55 155
20 0 29 10 48 55 22 48 111 168 140 187 16 11 46 10 46 -2z m-4262 -815 c16
-14 -6 -31 -78 -59 -25 -10 -64 -28 -87 -42 -23 -13 -51 -24 -63 -24 -17 0
-21 5 -18 28 2 20 12 31 38 42 19 8 62 29 95 47 60 31 87 34 113 8z m-734 -41
c9 -4 16 -18 16 -34 0 -20 12 -39 43 -67 50 -46 100 -66 172 -67 41 0 59 6 98
32 48 34 61 27 31 -16 -42 -61 -174 -74 -269 -27 -68 33 -115 93 -115 147 0
41 0 41 24 32z m2367 -214 c15 0 34 -7 43 -15 8 -8 19 -15 25 -15 6 0 11 -4
11 -10 0 -5 18 -14 40 -20 22 -6 40 -17 40 -24 0 -14 -30 -52 -96 -120 -42
-44 -278 -176 -314 -176 -10 0 -21 -9 -25 -19 -3 -11 -21 -26 -40 -35 -19 -10
-58 -40 -85 -67 -28 -28 -72 -60 -98 -71 -26 -11 -69 -36 -95 -55 -57 -40
-209 -113 -287 -137 -30 -10 -73 -26 -95 -36 -109 -50 -137 -60 -158 -60 -13
0 -47 -7 -76 -16 -29 -8 -70 -14 -92 -13 -21 2 -41 0 -45 -4 -4 -4 -17 -7 -28
-7 -20 0 -19 1 4 18 14 9 36 27 50 40 28 26 125 67 184 77 31 5 51 19 90 61
28 31 57 53 65 52 9 -2 24 6 34 19 10 12 24 20 32 16 9 -3 15 1 15 10 0 10 19
22 49 32 57 19 90 57 70 81 -9 11 -8 14 5 14 18 0 22 25 4 36 -6 4 -18 -2 -26
-12 -14 -18 -14 -18 -9 3 3 13 1 26 -4 29 -5 3 -9 17 -9 31 0 18 -4 24 -15 19
-21 -8 -19 0 6 23 12 11 27 17 34 15 7 -3 15 2 19 11 4 11 12 14 26 10 16 -5
20 -2 20 19 0 20 4 24 17 19 12 -5 15 -2 11 9 -5 11 1 14 25 13 18 -1 34 1 37
4 20 26 68 51 96 51 31 0 47 14 25 22 -5 2 -3 12 5 22 8 11 14 14 14 8 0 -7 5
-12 11 -12 6 0 8 7 5 16 -3 9 -2 12 5 9 18 -12 72 18 108 57 19 21 42 38 51
38 10 0 35 8 56 17 22 9 66 24 99 33 51 13 66 14 99 3 21 -7 51 -13 67 -13z
m2517 -1170 c37 -15 87 -33 110 -40 33 -8 42 -15 38 -27 -3 -8 -9 -26 -12 -39
-7 -29 -15 -30 -31 -5 -7 11 -29 25 -49 31 -66 22 -181 81 -201 102 -18 21
-18 21 30 14 27 -4 78 -20 115 -36z m-2798 -220 c0 -23 -7 -54 -15 -70 -14
-26 -21 -30 -60 -30 -24 0 -50 -6 -57 -12 -7 -7 -35 -14 -63 -16 -46 -2 -49
-2 -31 13 11 8 23 15 28 15 4 0 16 7 25 15 52 43 159 124 166 124 4 1 7 -17 7
-39z m400 -434 c0 -19 4 -37 8 -40 27 -16 39 -528 14 -553 -21 -20 -35 -4 -28
31 4 17 7 115 6 218 0 140 -4 199 -15 230 -20 58 -20 148 0 148 10 0 15 -10
15 -34z m-511 -91 c18 -99 12 -109 -67 -124 -37 -7 -96 -15 -132 -17 -36 -2
-90 -8 -120 -13 -44 -8 -58 -6 -70 6 -23 23 -4 34 215 123 44 18 96 45 115 61
19 15 38 28 41 28 4 1 12 -28 18 -64z m1780 -107 c-30 -27 -70 -57 -89 -67
-42 -22 -241 -84 -325 -102 -33 -7 -73 -19 -89 -27 -16 -8 -52 -18 -80 -22
-28 -5 -61 -11 -73 -15 -17 -5 -23 -3 -23 7 0 26 35 50 63 43 15 -4 39 1 63
13 22 11 71 25 109 31 72 13 125 26 160 41 11 4 47 18 80 30 88 32 122 51 169
91 60 52 80 62 85 41 2 -10 -18 -35 -50 -64z m-1749 -120 c13 -24 35 -59 50
-78 14 -19 33 -49 41 -66 17 -38 68 -101 137 -173 59 -62 67 -87 25 -76 -110
28 -410 8 -688 -45 -161 -30 -234 -39 -330 -39 l-90 0 95 19 c52 10 145 28
205 39 138 25 286 56 392 81 45 11 97 20 117 20 19 0 38 5 41 10 4 7 -44 9
-144 6 -114 -3 -154 -1 -168 9 -14 11 -16 16 -5 26 8 9 12 9 12 2 0 -9 22 -11
40 -2 11 5 27 7 65 8 27 1 48 9 66 25 27 25 69 41 138 52 37 5 42 8 29 18 -28
20 -269 11 -478 -19 -133 -19 -220 -25 -220 -15 0 4 12 10 28 13 15 3 43 10
62 16 19 5 51 14 70 20 19 5 69 19 110 30 41 12 116 30 165 42 62 14 96 27
110 42 26 29 85 77 94 77 4 0 18 -19 31 -42z m-355 -15 c-10 -3 -28 -11 -40
-19 -42 -28 -188 -66 -300 -79 -16 -2 -50 -8 -75 -13 -45 -10 -183 -15 -145
-5 11 3 24 9 29 14 6 5 25 9 42 9 18 0 35 4 38 9 3 5 23 11 43 14 50 8 116 21
248 51 61 13 126 24 145 24 20 0 26 -2 15 -5z m859 -360 c4 -27 9 -73 12 -103
4 -30 9 -57 13 -60 14 -10 31 -88 31 -139 0 -28 -2 -51 -4 -51 -9 0 -84 77
-89 93 -4 9 -11 17 -17 17 -6 0 -8 5 -5 10 3 6 0 11 -7 11 -7 1 1 4 17 8 29 6
30 7 33 75 2 58 -1 75 -18 97 -21 30 -26 49 -11 49 5 0 13 9 16 20 11 34 23
22 29 -27z m-196 -79 c84 -100 102 -125 97 -133 -3 -6 -25 0 -51 15 -75 42
-119 53 -237 60 -112 6 -378 -9 -450 -25 -67 -16 -47 4 31 31 89 30 194 46
377 57 158 9 223 7 233 -5z m-126 -109 c35 -5 92 -25 150 -54 76 -37 96 -53
110 -81 21 -40 44 -60 71 -60 24 0 46 -27 47 -57 0 -12 5 -25 10 -28 11 -7 14
-58 4 -68 -17 -16 -65 21 -119 94 -61 82 -119 139 -142 139 -7 0 -13 3 -13 8
0 9 -42 27 -100 41 -25 6 -139 13 -253 16 -115 3 -216 9 -225 15 -14 8 -12 9
11 10 16 0 36 4 45 9 9 5 68 12 131 15 63 3 116 7 117 9 5 4 96 0 156 -8z
m-545 -475 c96 -24 221 -85 289 -142 105 -87 210 -237 271 -388 13 -30 27 -64
32 -75 26 -60 32 -83 36 -143 3 -37 9 -101 15 -142 17 -137 14 -400 -6 -490
-12 -53 -45 -108 -81 -135 -21 -16 -40 -32 -43 -36 -14 -18 -68 -36 -96 -32
-26 4 -35 -1 -57 -29 -49 -60 -72 -78 -112 -89 -65 -17 -229 -69 -246 -79 -9
-5 -35 -14 -58 -20 -22 -6 -41 -15 -41 -21 0 -6 -4 -8 -9 -5 -5 3 -28 -1 -51
-9 -23 -8 -60 -15 -81 -15 -22 0 -39 -5 -39 -10 0 -6 -15 -26 -34 -45 -22 -22
-36 -47 -41 -73 -6 -35 -14 -46 -63 -79 -84 -57 -172 -100 -218 -108 -48 -7
-125 20 -117 42 3 8 -2 13 -14 13 -31 0 -153 144 -153 181 0 10 -4 21 -10 24
-15 9 -12 29 9 51 16 18 17 25 6 50 -6 16 -15 43 -18 61 -3 17 -22 56 -42 87
-19 31 -40 67 -45 81 -6 14 -15 37 -22 53 -6 15 -10 31 -9 36 1 4 -2 13 -7 20
-6 6 -10 35 -11 65 -1 74 -14 83 -41 30 -12 -23 -44 -65 -70 -93 -26 -28 -61
-79 -78 -112 -39 -78 -85 -119 -114 -103 -19 10 -20 9 -15 -22 4 -19 11 -87
17 -151 10 -112 9 -120 -11 -160 -20 -39 -21 -47 -10 -127 18 -128 21 -194 12
-210 -11 -18 -26 107 -17 137 4 11 2 23 -4 27 -5 3 -10 24 -10 46 0 43 -16 52
-30 17 -7 -18 -9 -9 -9 38 -1 37 5 73 14 90 8 16 14 45 14 64 -1 34 -2 33 -10
-10 -5 -25 -13 -54 -18 -65 -14 -30 -26 -147 -26 -260 0 -80 -4 -106 -19 -130
l-18 -30 20 25 c42 50 47 67 34 116 -14 52 -15 91 -3 98 12 8 21 -45 21 -128
0 -78 23 -270 39 -325 14 -46 15 -261 1 -261 -3 0 -27 7 -54 15 -35 11 -53 12
-62 4 -7 -5 -14 -6 -17 -2 -3 5 -26 7 -52 5 -73 -6 -74 -14 -45 -317 12 -123
12 -137 -9 -245 -12 -63 -26 -119 -30 -125 -5 -5 -11 -21 -14 -35 -12 -51 -68
-161 -85 -167 -18 -7 -64 -41 -94 -70 -10 -9 -18 -24 -18 -33 0 -9 -6 -25 -14
-35 -12 -17 -16 -17 -31 -5 -14 12 -18 12 -26 -1 -9 -14 -8 -28 5 -60 6 -13 0
-18 -28 -21 -43 -5 -44 -2 -12 92 18 51 43 97 87 152 l61 80 -31 30 c-25 25
-37 29 -61 25 -34 -7 -51 10 -27 28 10 7 17 16 17 21 0 5 14 36 30 69 16 33
30 70 30 82 0 12 -26 73 -58 135 -33 62 -65 130 -71 151 -11 31 -15 36 -27 26
-27 -22 -39 4 -25 51 6 22 15 40 19 40 9 0 42 -70 42 -88 0 -5 4 -12 9 -14 12
-4 141 -270 141 -291 0 -9 4 -18 9 -21 4 -3 12 -25 16 -48 4 -24 10 -36 12
-27 7 28 -46 170 -122 325 -41 82 -76 161 -79 175 -4 18 8 46 48 109 30 47 78
126 107 175 29 50 64 108 79 130 55 82 67 126 196 705 24 108 58 205 82 230
20 22 20 22 31 2 6 -12 11 -32 11 -46 0 -14 4 -27 9 -30 5 -3 11 -23 14 -43 4
-21 11 -58 16 -83 10 -42 10 -41 5 21 -2 37 -11 89 -19 117 -29 98 -33 206
-10 312 7 36 19 90 25 120 67 316 171 582 279 714 77 94 118 130 237 208 54
36 128 91 164 122 186 160 299 222 465 252 82 15 163 10 272 -16z m-1144 -366
c-26 -36 -58 -78 -70 -93 -12 -15 -32 -47 -45 -71 -13 -24 -26 -42 -30 -42 -5
1 -21 2 -38 2 -38 0 -38 10 3 52 18 18 45 52 60 75 40 58 159 171 165 155 2
-7 -18 -42 -45 -78z m-2083 -1241 c0 -109 4 -216 10 -238 5 -22 15 -89 20
-149 6 -60 13 -121 16 -135 4 -19 3 -22 -4 -11 -25 40 -46 192 -59 420 -3 47
-9 90 -15 97 -15 18 6 213 23 213 5 0 9 -88 9 -197z m2181 -2153 c17 -61 5
-217 -22 -295 -33 -91 -50 -124 -85 -162 -46 -49 -61 -41 -28 15 90 156 96
175 68 230 -17 36 -10 100 12 109 8 3 14 17 13 32 l-1 26 -7 -25 c-4 -15 -10
-20 -14 -13 -5 8 -17 9 -43 1 -20 -5 -38 -7 -41 -4 -7 7 54 77 86 98 34 22 54
18 62 -12z m-207 -658 c-4 -9 -6 -21 -5 -25 1 -5 -7 -20 -17 -35 -27 -41 -39
-70 -63 -152 -12 -41 -32 -88 -45 -105 -12 -16 -26 -43 -29 -60 -4 -16 -20
-52 -35 -80 -15 -27 -30 -68 -34 -91 -5 -37 -59 -155 -149 -330 -40 -78 -120
-167 -125 -141 -4 20 13 50 68 117 43 53 114 179 106 187 -3 4 1 17 9 30 15
22 14 24 -7 32 -13 5 -52 9 -87 10 -112 2 -96 19 45 46 98 20 118 31 129 78 8
28 5 30 -45 28 -24 0 -24 0 5 14 17 8 35 14 40 15 14 0 65 83 65 106 0 10 21
59 45 108 25 50 45 101 45 114 0 23 -2 24 -42 18 l-42 -7 26 21 c14 11 33 20
42 20 9 0 20 10 25 23 5 12 18 31 30 41 11 11 21 24 21 31 0 6 6 17 13 24 10
10 13 9 15 -4 2 -9 0 -24 -4 -33z m-1141 -1543 c9 -12 17 -30 17 -40 0 -10 5
-19 10 -19 22 0 8 -30 -17 -36 -25 -7 -25 -8 -8 -15 11 -4 14 -8 8 -8 -7 -1
-13 -6 -13 -13 0 -6 -7 -19 -15 -28 -8 -8 -17 -35 -20 -59 -5 -44 -27 -90 -57
-125 -10 -11 -18 -25 -18 -31 0 -7 -18 -17 -40 -24 -22 -6 -40 -16 -40 -20 0
-5 -11 -12 -25 -15 -14 -4 -24 -10 -21 -15 3 -4 -5 -7 -17 -7 -14 1 -21 -4
-19 -13 2 -8 -3 -18 -10 -22 -20 -13 -28 -11 -22 6 4 10 0 15 -16 15 -17 0
-20 -4 -15 -20 3 -11 2 -20 -3 -20 -5 0 -12 9 -15 20 -3 13 -14 20 -29 20 -27
0 -78 21 -78 33 0 4 -5 7 -11 7 -15 0 -39 26 -39 43 0 20 -131 30 -143 10 -4
-7 -16 -13 -26 -13 -26 0 -61 -20 -94 -53 -33 -34 -85 -57 -127 -57 -28 0 -30
2 -24 28 9 38 13 42 35 42 11 0 38 12 62 27 59 38 87 53 102 53 6 0 20 9 30
20 10 11 23 20 28 20 14 0 57 41 57 53 0 22 35 47 64 47 17 1 59 7 94 14 55
12 64 12 69 -1 8 -21 -14 -63 -32 -63 -10 0 -13 -5 -9 -12 4 -7 3 -8 -5 -4 -6
4 -18 1 -26 -8 -19 -19 -19 -30 0 -23 8 4 17 2 21 -4 4 -6 14 -4 29 5 13 9 26
12 30 7 3 -5 2 -11 -2 -14 -5 -2 -3 -2 4 -1 7 2 15 -2 19 -7 4 -7 15 -3 28 10
15 14 25 18 32 11 8 -8 15 -6 24 5 10 12 10 15 -3 15 -10 0 -14 6 -11 15 4 8
15 15 26 15 11 0 28 5 38 10 12 6 21 7 25 0 7 -11 65 19 76 40 19 39 30 123
23 176 l-7 57 44 -7 c26 -4 51 -15 62 -27z m193 -7 c-1 -20 -4 -42 -8 -47 -34
-57 -48 -91 -48 -118 0 -83 -58 -226 -92 -227 -15 0 0 88 25 149 15 36 27 72
27 80 0 9 14 36 30 61 21 32 30 57 30 86 0 43 5 54 26 54 8 0 11 -13 10 -38z"/>
<path d="M5420 10883 c-19 -13 -38 -33 -43 -45 -4 -11 -16 -22 -27 -25 -15 -4
-20 -14 -20 -42 0 -20 5 -43 10 -51 11 -15 24 -4 64 51 18 25 44 35 81 31 28
-3 36 -10 45 -37 11 -34 37 -52 52 -37 14 14 -7 56 -34 70 -13 8 -32 29 -43
47 -32 60 -45 66 -85 38z"/>
<path d="M7055 12510 c-9 -14 31 -82 94 -162 27 -34 18 -48 -31 -48 -15 0 -29
-4 -32 -8 -3 -5 16 -7 42 -5 26 2 52 0 58 -4 12 -8 74 -137 99 -203 7 -19 18
-66 23 -105 6 -38 15 -103 21 -143 16 -108 14 -146 -14 -208 -28 -64 -31 -84
-12 -84 51 0 128 180 128 300 0 253 -40 341 -236 527 -69 64 -125 121 -125
126 0 4 10 5 23 2 22 -7 22 -7 2 9 -23 18 -32 19 -40 6z"/>
<path d="M8396 11996 c-9 -14 -23 -26 -31 -26 -9 0 -15 -9 -15 -21 0 -18 4
-20 28 -15 19 5 23 4 12 -3 -8 -6 -11 -13 -7 -17 3 -4 13 -1 22 6 10 8 15 9
15 1 0 -6 11 -11 24 -11 16 0 27 -7 31 -20 3 -11 10 -20 15 -20 5 0 16 -7 25
-16 11 -12 19 -14 27 -6 6 6 18 8 27 4 13 -5 14 -3 4 9 -7 8 -9 26 -6 39 4 16
3 21 -5 16 -7 -4 -12 -2 -12 5 0 6 -8 9 -20 6 -21 -5 -28 7 -10 18 16 10 12
25 -6 25 -10 0 -14 5 -10 15 8 21 -19 30 -49 17 -20 -9 -26 -8 -33 4 -7 13
-11 11 -26 -10z"/>
<path d="M7153 11937 c-11 -17 -49 -37 -71 -37 -16 0 -65 -44 -67 -60 -8 -63
-19 -109 -31 -127 -20 -32 -18 -40 14 -46 17 -3 72 9 150 35 l124 40 -5 51
c-3 29 -9 63 -14 76 -8 21 -11 22 -24 8 -14 -13 -17 -13 -27 4 -7 10 -12 27
-12 38 0 22 -26 35 -37 18z"/>
<path d="M7215 11660 c-12 -19 -85 -48 -137 -55 -29 -4 -80 -18 -113 -30 -112
-43 -445 -49 -538 -10 -81 34 -90 10 -14 -38 121 -78 230 -102 373 -82 88 13
100 13 116 -2 13 -12 21 -13 31 -5 7 6 22 11 32 11 58 -1 142 33 195 78 36 30
90 108 90 130 0 15 -26 18 -35 3z"/>
<path d="M6803 10944 c-3 -8 3 -32 13 -53 13 -28 23 -37 36 -33 10 2 28 -2 40
-10 13 -8 39 -18 59 -22 20 -3 49 -18 65 -31 16 -14 32 -25 35 -25 3 0 16 -9
29 -20 13 -11 31 -20 40 -20 9 0 26 -9 38 -20 25 -24 42 -26 42 -5 0 8 -4 15
-9 15 -5 0 -7 9 -4 20 8 29 -21 56 -76 75 -31 10 -70 37 -116 80 -68 65 -69
65 -127 65 -44 0 -60 -4 -65 -16z"/>
</g>
</svg>
