<?xml version="1.0" standalone="no"?>
<!DOCTYPE svg PUBLIC "-//W3C//DTD SVG 20010904//EN"
 "http://www.w3.org/TR/2001/REC-SVG-20010904/DTD/svg10.dtd">
<svg version="1.0" xmlns="http://www.w3.org/2000/svg"
 width="512.000000pt" height="512.000000pt" viewBox="0 0 512.000000 512.000000"
 preserveAspectRatio="xMidYMid meet">
<metadata>
Created by potrace 1.16, written by Peter Selinger 2001-2019
</metadata>
<g transform="translate(0.000000,512.000000) scale(0.100000,-0.100000)"
fill="#000000" stroke="none">
<path d="M2380 5024 c-261 -21 -453 -65 -705 -158 -524 -196 -996 -606 -1277
-1111 -171 -306 -272 -645 -303 -1019 -13 -158 -13 -200 0 -360 21 -246 41
-354 107 -566 116 -373 323 -715 598 -990 74 -74 149 -147 165 -160 56 -47
130 -105 147 -115 9 -5 54 -35 100 -66 89 -60 238 -143 238 -132 0 3 9 -2 19
-11 11 -10 25 -19 33 -20 7 -2 27 -9 43 -16 17 -7 32 -14 35 -15 3 0 25 -11
50 -24 25 -13 45 -23 45 -21 0 1 18 -5 40 -15 22 -9 48 -18 59 -20 10 -3 37
-11 60 -19 91 -31 196 -57 296 -72 58 -8 125 -19 149 -24 121 -23 541 -6 736
30 656 121 1228 495 1605 1052 59 87 67 101 136 228 153 286 244 597 276 945
16 173 16 252 -1 430 -25 275 -82 518 -167 712 -8 17 -14 34 -14 37 0 7 -106
221 -132 266 -105 186 -252 373 -425 540 -361 351 -792 572 -1293 664 -71 13
-443 49 -460 45 -3 -1 -75 -7 -160 -15z m1250 -2559 l0 -1175 -150 0 -150 0 0
65 0 65 90 0 90 0 0 1040 0 1040 -905 0 -905 0 0 -1040 0 -1040 595 0 595 0 0
-65 0 -64 -647 -3 c-357 -2 -651 -2 -655 0 -5 2 -8 532 -8 1178 l0 1174 1025
0 1025 0 0 -1175z m-492 863 l3 -68 -671 0 -670 0 0 63 c0 35 3 67 7 70 3 4
304 6 667 5 l661 -3 3 -67z m92 -188 l0 -70 -712 2 -713 3 -3 54 c-2 29 -1 60
2 67 4 12 124 14 716 14 l710 0 0 -70z m-410 -190 l0 -70 -507 2 -508 3 -3 68
-3 67 511 0 510 0 0 -70z m280 -180 l0 -70 -475 -2 c-261 -2 -553 -3 -647 -3
l-173 0 -3 59 c-2 32 -1 65 2 72 4 12 115 14 651 14 l645 0 0 -70z m80 -190
l0 -70 -690 0 -690 0 0 63 c0 35 3 67 7 70 3 4 314 7 690 7 l683 0 0 -70z
m170 -190 l0 -70 -772 2 -773 3 -3 68 -3 67 776 0 775 0 0 -70z m-56 -182 c0
-38 -3 -69 -9 -70 -5 -2 -341 -3 -745 -3 l-735 0 -3 59 c-2 32 -1 65 2 72 5
12 127 14 747 12 l741 -3 2 -67z m-168 -224 c9 25 21 19 33 -16 l11 -31 23 21
c29 27 37 28 37 1 0 -18 4 -20 26 -15 25 7 26 5 21 -23 -6 -29 -5 -30 23 -24
29 5 30 5 24 -26 -6 -28 -4 -31 20 -31 23 0 25 -2 16 -19 -14 -27 -13 -31 10
-31 26 0 25 -6 -6 -34 l-26 -22 28 -18 c26 -18 27 -19 9 -32 -15 -11 -16 -17
-7 -26 17 -17 15 -28 -7 -28 -25 0 -37 -18 -22 -33 18 -18 13 -27 -19 -27 -27
0 -29 -2 -24 -29 6 -26 4 -29 -15 -24 -17 4 -21 1 -21 -17 0 -17 -4 -20 -20
-15 -20 6 -20 2 -20 -189 0 -108 -3 -196 -7 -196 -5 0 -29 24 -55 52 l-47 53
-50 -55 -50 -55 -1 198 c0 194 0 198 -20 192 -16 -5 -20 -2 -20 15 0 19 -4 21
-25 16 -14 -4 -25 -5 -25 -4 0 2 4 18 9 36 10 32 9 32 -25 32 -33 0 -45 12
-24 25 16 10 2 25 -22 25 -21 0 -21 0 2 25 l23 24 -27 12 c-33 15 -33 23 1 38
l26 12 -21 15 c-28 19 -28 30 0 37 21 6 21 7 3 27 -18 20 -18 20 20 20 39 0
40 3 19 54 -6 16 -4 18 20 14 25 -5 27 -3 22 18 -7 26 4 30 33 14 16 -8 20 -5
25 22 l6 31 23 -21 24 -22 12 26 c11 25 12 26 31 9 18 -16 20 -16 26 -1z"/>
<path d="M3034 1881 c-102 -46 -131 -183 -58 -271 76 -90 219 -83 282 13 22
33 27 52 27 103 0 55 -4 67 -30 100 -59 72 -139 92 -221 55z m139 -5 c42 -17
93 -76 102 -116 22 -102 -55 -200 -158 -200 -89 0 -147 45 -165 126 -17 79 14
144 88 182 51 25 87 28 133 8z"/>
</g>
</svg>
